<?xml version="1.0" standalone="no"?>
<!DOCTYPE svg PUBLIC "-//W3C//DTD SVG 20010904//EN"
 "http://www.w3.org/TR/2001/REC-SVG-20010904/DTD/svg10.dtd">
<svg version="1.0" xmlns="http://www.w3.org/2000/svg"
 width="256.000000pt" height="256.000000pt" viewBox="0 0 256.000000 256.000000"
 preserveAspectRatio="xMidYMid meet">

<g transform="translate(0.000000,256.000000) scale(0.100000,-0.100000)"
fill="#000000" stroke="none">
<path d="M729 2488 c-12 -40 -29 -118 -39 -173 -16 -99 -17 -100 -61 -135 -24
-19 -61 -53 -81 -75 -25 -27 -38 -35 -38 -24 0 9 -18 33 -39 52 -91 82 -259
68 -397 -33 -58 -44 -67 -54 -70 -87 -2 -17 7 -11 39 29 55 67 98 90 157 84
31 -4 36 -3 15 2 l-30 7 30 12 c82 32 161 18 209 -36 23 -25 16 -26 -43 -5
-50 17 -96 13 -178 -18 -55 -20 -209 -116 -200 -124 3 -3 38 18 79 45 135 92
240 112 343 67 53 -24 66 -38 45 -51 -5 -3 -10 1 -10 9 0 16 -13 21 -94 31
-31 4 -46 3 -42 -3 3 -6 0 -13 -6 -16 -7 -3 1 -4 17 -2 l30 4 -30 -25 c-22
-18 -25 -23 -10 -19 11 3 26 2 33 -2 8 -6 -15 -30 -73 -77 -153 -123 -284
-305 -271 -375 3 -14 0 -40 -7 -58 -10 -28 -9 -36 4 -45 11 -9 18 -38 23 -101
6 -86 6 -88 -14 -83 -20 5 -20 2 -20 -329 1 -227 4 -333 11 -328 6 3 8 16 5
28 -6 24 20 70 34 61 5 -3 10 2 12 11 3 14 5 14 20 -3 16 -18 16 -21 -6 -70
-26 -54 -54 -85 -36 -38 14 37 -4 22 -24 -19 -10 -22 -16 -60 -16 -108 l0 -73
19 40 c10 22 47 103 82 180 60 132 89 189 89 172 0 -4 -9 -25 -20 -47 -12 -24
-16 -40 -9 -42 8 -3 6 -20 -4 -56 -9 -29 -12 -52 -8 -52 13 0 46 42 81 102
l34 56 37 -19 38 -19 -21 -72 c-25 -90 -76 -222 -134 -347 -24 -51 -42 -97
-39 -101 7 -12 -46 -54 -100 -80 -25 -12 -44 -24 -41 -27 7 -8 84 19 221 77
11 4 45 18 75 30 30 13 78 33 105 45 28 13 72 28 98 35 42 11 49 11 60 -4 12
-16 15 -16 40 4 16 13 27 17 27 9 0 -6 -46 -57 -102 -112 -57 -55 -103 -107
-103 -116 0 -10 -7 -15 -19 -13 -10 2 -15 -1 -12 -6 3 -6 -6 -15 -21 -20 l-28
-10 25 -1 c14 -1 46 10 73 24 26 14 47 21 47 16 0 -5 -5 -13 -10 -16 -21 -13
-9 -25 24 -25 29 0 39 7 70 49 19 27 59 68 89 90 29 22 68 59 86 82 18 22 35
38 37 36 3 -2 -20 -51 -49 -108 -64 -122 -74 -149 -55 -148 7 0 40 55 73 121
70 140 84 161 136 194 53 33 61 31 53 -11 -4 -24 -1 -42 9 -59 10 -15 12 -27
6 -35 -5 -6 1 -2 14 10 21 19 21 21 4 34 -17 12 -17 21 -10 90 5 43 6 78 1 81
-5 3 -4 12 2 19 8 9 8 20 1 32 -5 11 -6 25 -1 33 5 8 4 22 -1 32 -5 10 -8 18
-5 18 2 0 37 -19 77 -41 87 -50 311 -156 358 -171 14 -4 20 -116 7 -137 -4 -7
1 -11 14 -11 15 0 24 -10 32 -31 6 -17 20 -34 32 -39 16 -6 28 -26 42 -69 10
-34 22 -61 26 -61 11 0 10 12 -7 61 -23 67 -36 87 -58 93 -13 3 -18 10 -14 21
4 9 -2 24 -13 35 -23 23 -28 76 -6 63 40 -23 110 -92 126 -123 10 -19 24 -61
31 -92 8 -35 19 -58 27 -58 9 0 11 7 7 20 -6 18 -3 20 19 15 14 -3 37 -7 51
-10 14 -3 35 1 48 9 32 20 213 49 263 41 23 -3 67 -21 99 -40 68 -41 95 -45
95 -12 -1 33 -17 149 -24 172 -4 11 5 -5 19 -35 22 -45 26 -65 22 -107 l-6
-53 155 0 c102 0 154 4 154 11 0 5 -4 8 -10 4 -5 -3 -5 8 2 26 8 22 8 33 0 38
-17 10 -32 58 -32 101 0 21 -5 51 -10 66 -6 15 -8 29 -5 33 7 6 30 -27 30 -44
1 -5 7 -21 15 -35 7 -14 17 -38 21 -55 6 -28 7 -26 8 13 1 24 -6 66 -16 94
-15 47 -15 51 0 60 25 14 21 31 -4 18 -11 -7 -22 -10 -23 -8 -1 2 -24 30 -52
63 -27 33 -63 80 -79 104 -17 24 -34 49 -39 55 -4 6 -3 30 3 53 l12 42 32 -18
c21 -12 48 -18 77 -16 76 4 90 12 90 51 0 28 -6 38 -40 60 -57 38 -65 26 -20
-32 l39 -52 -40 -4 c-32 -3 -42 0 -54 19 -8 12 -15 29 -15 38 0 20 -9 19 -34
-2 -18 -16 -18 -15 1 8 20 22 21 29 11 55 -6 17 -21 35 -32 40 -15 6 -23 22
-28 56 -3 26 -9 52 -13 58 -4 6 9 30 28 54 20 24 43 68 52 101 l18 59 23 -45
c13 -24 23 -38 24 -31 0 7 -8 29 -19 50 -25 51 -34 82 -23 82 6 0 13 -12 17
-27 4 -16 9 -23 11 -18 2 6 -11 55 -29 109 l-33 99 -27 -54 c-21 -43 -24 -55
-13 -61 8 -4 17 -20 20 -35 4 -16 9 -37 12 -48 4 -16 3 -17 -6 -5 -8 11 -10 2
-8 -37 2 -59 -7 -80 -18 -39 -3 14 -8 26 -9 26 -18 0 -65 -27 -104 -60 -57
-48 -69 -51 -39 -9 16 23 19 33 10 36 -6 3 -9 10 -6 15 7 11 -44 7 -78 -7 -13
-5 -11 7 14 71 23 61 29 88 25 124 -5 42 -5 43 7 17 7 -15 15 -24 19 -20 4 4
19 -5 33 -21 15 -15 32 -25 40 -22 8 3 14 1 14 -4 0 -19 21 -10 30 13 11 26
26 49 58 95 13 17 20 37 17 42 -4 6 -8 68 -9 138 -3 111 -7 138 -33 214 -24
69 -115 235 -142 258 -3 3 -28 32 -56 65 -97 116 -153 153 -235 155 -51 2
-130 -7 -137 -14 -5 -5 -6 -69 -2 -86 2 -8 14 -26 27 -40 12 -13 22 -28 22
-32 0 -4 25 -23 55 -43 30 -21 55 -39 55 -42 0 -2 -4 -2 -9 1 -5 4 -11 0 -14
-6 -3 -11 -9 -11 -26 0 -19 11 -21 10 -21 -10 0 -21 0 -21 -15 -2 -14 18 -14
18 -15 -10 0 -47 -26 -14 -52 65 -20 64 -24 69 -55 75 -18 3 -31 9 -29 13 2 3
-10 7 -27 8 -33 3 -48 5 -105 18 -47 11 -112 93 -112 142 0 28 3 34 16 29 11
-4 14 -2 11 6 -3 7 -8 21 -12 31 -9 21 4 22 68 2 51 -15 56 -12 30 18 -17 19
-17 20 7 15 14 -3 34 -9 45 -13 15 -5 16 -4 6 3 -11 8 -8 11 15 14 24 3 19 6
-26 14 -55 11 -55 11 -26 23 17 7 49 9 75 6 45 -6 45 -5 16 8 l-30 13 33 12
c18 6 46 21 63 33 37 26 81 94 77 117 -2 11 -13 -2 -28 -33 -22 -45 -76 -95
-102 -95 -5 0 16 29 48 65 31 36 54 68 50 72 -3 3 -7 4 -9 2 -52 -72 -134
-149 -160 -149 -4 0 -4 19 -1 43 6 45 -15 107 -37 107 -5 0 -3 -13 6 -30 16
-30 19 -69 9 -107 -8 -27 -34 -31 -34 -5 0 25 -55 106 -85 126 -14 9 -45 16
-75 16 -45 0 -52 -3 -60 -26 -16 -41 -12 -55 13 -52 12 2 28 7 35 11 71 45 90
40 128 -34 l25 -50 -48 8 c-61 10 -140 10 -177 -1 l-28 -9 8 54 c11 78 10 91
-2 96 -7 2 -12 -2 -11 -9 0 -7 -1 -26 -1 -41 -3 -40 -22 -23 -22 19 0 19 -5
34 -11 34 -7 0 -8 -23 -4 -67 5 -52 3 -75 -9 -98 -9 -16 -16 -40 -16 -52 0
-12 -4 -25 -10 -28 -5 -3 -10 -2 -10 3 0 5 -11 7 -25 4 -35 -6 -92 6 -110 24
-10 11 -15 37 -16 82 -1 66 -1 66 -10 23 -13 -69 -19 -61 -19 27 l0 82 -140 0
-139 0 -22 -72z m221 -87 c0 -13 -29 -35 -37 -28 -7 8 15 37 28 37 5 0 9 -4 9
-9z m503 -1 c27 0 37 -3 29 -9 -10 -6 -6 -11 17 -19 17 -6 31 -15 31 -20 0 -7
-230 -34 -238 -27 -1 1 1 16 4 33 5 27 12 33 48 41 22 5 47 7 54 5 8 -2 32 -4
55 -4z m-503 -83 c0 -8 -9 -22 -20 -32 -23 -20 -24 -17 -10 19 10 27 30 35 30
13z m280 -198 c-41 -207 -35 -191 -71 -171 -24 14 -29 22 -26 45 3 27 -10 39
-17 15 -16 -52 -17 -70 -1 -64 19 7 55 -13 55 -31 0 -7 -7 -10 -15 -7 -12 5
-15 -2 -15 -28 0 -19 5 -39 12 -46 8 -8 8 -12 1 -12 -13 0 -90 148 -109 210
-15 48 -19 136 -6 143 4 2 21 7 37 11 l30 6 -35 -30 c-25 -22 -30 -30 -17 -30
10 0 36 17 60 38 23 20 52 46 64 56 l22 18 -8 -28 c-5 -16 -14 -42 -20 -58 -6
-16 -10 -31 -8 -33 3 -2 24 44 48 103 37 89 45 102 47 77 2 -17 -11 -100 -28
-184z m303 194 c-7 -2 -21 -2 -30 0 -10 3 -4 5 12 5 17 0 24 -2 18 -5z m-140
-20 c-7 -2 -19 -2 -25 0 -7 3 -2 5 12 5 14 0 19 -2 13 -5z m-67 -19 c-20 -20
-20 -44 0 -73 13 -18 14 -28 5 -48 -9 -20 -8 -29 9 -50 11 -14 20 -33 20 -42
0 -10 -5 -6 -14 10 -7 15 -30 42 -50 60 -35 33 -36 35 -25 79 11 48 33 80 56
80 12 0 12 -3 -1 -16z m-314 -105 c2 -82 -1 -99 -20 -129 -24 -38 -28 -55 -11
-44 8 5 8 1 0 -14 -6 -12 -17 -24 -24 -28 -9 -5 -9 -4 1 7 22 24 13 31 -14 10
-27 -21 -64 -28 -64 -12 0 33 117 317 127 308 2 -2 4 -46 5 -98z m-321 -3 c6
3 4 -7 -4 -22 -7 -16 -22 -67 -32 -114 -26 -126 -44 -155 -116 -189 -34 -16
-71 -26 -84 -23 -27 5 -41 30 -25 46 5 5 10 18 10 28 0 10 24 41 53 70 28 28
42 46 30 39 -13 -6 -23 -10 -23 -7 0 12 24 56 31 56 4 0 20 18 37 40 16 22 31
37 34 35 3 -3 18 9 34 28 22 25 31 30 37 20 5 -7 13 -11 18 -7z m248 -9 c-2
-1 -26 -20 -53 -42 -27 -21 -45 -32 -40 -23 10 19 87 77 93 72 2 -2 2 -5 0 -7z
m1077 -29 l29 -33 -32 29 c-18 17 -33 31 -33 33 0 8 8 1 36 -29z m-1561 -6
c-3 -3 -11 0 -18 7 -9 10 -8 11 6 5 10 -3 15 -9 12 -12z m842 -24 c33 -31 30
-58 -5 -58 -46 0 -69 39 -40 68 16 16 18 16 45 -10z m843 -71 c0 -6 -11 0 -25
13 -14 13 -25 28 -25 33 0 6 11 0 25 -13 14 -13 25 -28 25 -33z m-1311 -32 c0
-5 -8 6 -19 25 -11 19 -19 40 -19 45 0 6 8 -6 19 -25 11 -19 19 -39 19 -45z
m1287 13 c14 -22 23 -42 20 -45 -8 -9 -37 18 -30 28 3 5 -5 23 -17 41 -13 17
-17 28 -11 24 7 -4 24 -26 38 -48z m-867 16 c-15 -18 -22 -13 -13 10 3 9 10
13 16 10 5 -3 4 -12 -3 -20z m-220 -25 c7 -23 15 -47 18 -55 3 -8 -1 -14 -10
-14 -8 0 -31 -11 -51 -25 -44 -30 -46 -30 -101 -5 -49 22 -61 35 -44 46 8 5 9
3 4 -6 -6 -10 -3 -12 13 -8 12 4 20 2 17 -3 -3 -4 8 -15 25 -24 29 -15 33 -15
80 12 28 15 50 31 50 34 0 4 -7 25 -15 48 -8 22 -11 41 -6 41 4 0 13 -18 20
-41z m-224 -19 c8 -48 2 -60 -33 -60 -15 0 -44 -5 -66 -11 -46 -13 -68 0 -45
27 23 28 103 83 121 84 11 0 18 -12 23 -40z m961 19 c8 -14 -10 -11 -32 6 -18
13 -18 14 4 8 12 -3 25 -9 28 -14z m-1383 -31 c-4 -7 -6 -21 -5 -31 3 -13 -6
-22 -28 -30 -18 -7 -29 -18 -28 -27 2 -8 -22 -36 -52 -61 -31 -26 -75 -68 -99
-95 l-43 -49 40 80 c39 78 89 132 186 202 36 26 40 27 29 11z m1724 -21 c28
-41 56 -107 45 -107 -4 0 -20 25 -35 55 -15 30 -31 55 -36 55 -5 0 -11 7 -15
15 -10 28 19 15 41 -18z m-827 19 c0 -2 -8 -10 -17 -17 -16 -13 -17 -12 -4 4
13 16 21 21 21 13z m889 -67 c13 -28 20 -53 17 -56 -3 -3 -10 7 -17 23 -6 16
-18 41 -26 57 -8 15 -10 27 -5 27 5 0 19 -23 31 -51z m-116 13 c8 -9 20 -29
26 -45 14 -36 -5 -36 -21 1 -7 15 -18 35 -26 45 -20 22 0 22 21 -1z m-944 -64
c17 -40 18 -48 6 -48 -8 0 -15 4 -15 9 0 5 -9 11 -21 14 -17 5 -18 3 -7 -11
11 -14 10 -15 -5 -9 -10 4 -23 7 -27 7 -5 0 -23 13 -39 29 -33 33 -30 40 30
65 41 18 49 12 78 -56z m1145 -26 c7 -11 4 -11 -12 -1 -12 7 -18 17 -16 21 3
4 1 8 -4 8 -8 0 -32 43 -32 57 0 6 47 -56 64 -85z m-204 26 c0 -6 -9 1 -20 15
-11 14 -20 29 -20 34 1 11 40 -37 40 -49z m-1161 18 c7 -8 -2 -28 -29 -64 -45
-59 -53 -102 -19 -102 26 0 57 34 65 69 4 14 13 36 20 48 l14 22 34 -20 35
-20 -20 -20 c-17 -17 -23 -18 -36 -8 -12 11 -18 9 -33 -11 -10 -14 -21 -38
-24 -55 -13 -65 -15 -77 -21 -95 -4 -13 1 -21 22 -28 25 -9 31 -6 62 27 41 45
20 12 -31 -48 -21 -24 -38 -51 -38 -60 1 -19 29 11 104 109 33 43 51 60 54 50
8 -22 29 -40 46 -40 14 0 64 22 131 57 77 40 81 41 98 32 9 -6 17 -7 17 -4 0
4 13 -3 29 -14 35 -25 103 -28 121 -6 7 9 20 14 29 12 9 -1 24 9 35 23 13 19
16 20 11 5 -4 -11 -9 -27 -12 -35 -3 -8 7 -2 21 13 17 18 26 23 26 13 0 -8 -7
-21 -15 -30 -8 -8 -15 -20 -15 -26 0 -6 13 3 30 20 32 33 45 38 36 15 -3 -8
-1 -15 5 -15 5 0 12 7 15 15 4 8 11 15 16 15 6 0 7 -8 4 -17 -6 -15 -4 -15 14
2 19 18 20 18 20 -1 1 -18 1 -18 14 -1 16 21 27 22 20 2 -8 -20 5 -19 29 3 19
16 20 16 14 0 -4 -10 -2 -18 3 -18 6 0 3 -18 -6 -40 -26 -65 -9 -57 22 9 29
60 53 85 34 35 -12 -31 -13 -44 -1 -25 5 8 29 15 56 16 56 2 67 15 63 73 -2
28 1 42 9 42 17 0 18 -162 2 -192 -11 -21 -12 -21 -24 8 -8 16 -14 23 -14 15
-2 -28 -43 -171 -50 -171 -3 0 -19 31 -35 68 -16 37 -33 71 -37 75 -10 13 -46
-26 -70 -78 -25 -53 -43 -69 -27 -25 20 58 1 41 -22 -19 -12 -33 -31 -68 -41
-77 -17 -15 -19 -16 -14 -2 4 9 2 25 -4 37 -8 13 -8 28 -1 46 7 19 7 24 -1 19
-8 -4 -9 1 -4 17 3 13 -16 -10 -43 -51 -27 -41 -62 -86 -77 -100 l-27 -25 21
43 c12 24 20 49 18 55 -2 7 -11 -4 -19 -23 -8 -19 -31 -49 -50 -66 -22 -20
-33 -36 -28 -44 11 -18 57 9 128 75 32 30 62 52 66 48 3 -3 6 -20 6 -37 0 -37
14 -64 24 -47 4 6 4 17 0 24 -4 6 -3 9 1 5 5 -5 18 7 29 26 46 73 101 135 122
136 15 0 27 -15 49 -60 16 -33 31 -60 35 -60 3 0 17 28 30 63 l25 62 5 -45 5
-45 12 30 c6 17 17 54 24 83 15 59 24 66 33 22 10 -54 66 -184 96 -227 23 -32
30 -52 30 -89 0 -56 -19 -174 -29 -174 -3 0 -15 7 -25 15 -15 11 -16 18 -8 28
9 11 7 13 -9 13 -28 -1 -48 29 -32 45 9 9 16 9 30 -1 10 -8 0 5 -22 29 -63 67
-98 85 -155 78 -27 -3 -62 -13 -77 -22 -29 -16 -26 -16 56 5 56 15 79 8 130
-34 40 -34 41 -35 21 -46 -16 -8 -30 -8 -55 0 -21 7 -68 9 -117 6 -46 -2 -91
-5 -100 -5 -30 -1 -20 -21 10 -21 l27 0 -32 -21 c-31 -19 -46 -59 -23 -59 6 0
10 4 10 9 0 5 9 11 21 14 15 4 19 2 15 -10 -3 -8 -9 -32 -12 -53 -6 -34 -3
-42 22 -65 23 -22 35 -26 63 -21 19 3 42 12 50 21 15 15 13 15 -19 2 -40 -17
-73 -9 -89 22 -15 26 -14 38 1 23 7 -7 22 -12 35 -12 18 0 22 5 20 27 -1 16 3
28 11 29 6 1 16 2 22 3 5 0 7 8 3 17 -5 13 -2 15 18 9 40 -12 49 -24 38 -51
-12 -34 -11 -39 6 -24 8 7 15 18 15 24 0 6 9 19 20 28 17 16 21 16 35 2 22
-22 19 -52 -11 -91 l-25 -33 25 0 c18 0 24 4 20 15 -6 15 41 33 54 20 4 -3
-10 -39 -31 -78 -24 -47 -41 -96 -48 -142 -12 -83 -48 -154 -109 -215 -67 -67
-102 -91 -243 -165 -113 -60 -132 -66 -165 -60 -53 10 -194 69 -286 121 -43
24 -83 41 -89 37 -5 -3 -7 -1 -4 4 4 6 -5 19 -20 28 -38 25 -113 96 -124 118
-9 15 -3 25 36 59 45 40 47 43 42 86 -3 24 -18 70 -35 102 -20 39 -26 62 -20
73 5 10 4 18 -2 22 -6 4 -20 25 -31 48 -12 23 -15 36 -8 30 18 -18 30 -16 27
4 -2 12 11 24 41 39 40 20 54 22 155 17 61 -2 128 -11 149 -19 46 -17 42 -18
44 6 1 11 -2 20 -8 20 -5 0 -9 5 -9 11 0 6 7 9 15 5 18 -7 71 12 61 21 -4 4
-25 6 -46 4 -25 -1 -40 2 -40 9 0 6 -4 9 -9 6 -13 -8 -72 14 -65 25 3 5 1 9
-5 9 -5 0 -12 -4 -15 -9 -12 -19 -142 -34 -205 -24 -59 9 -61 9 -55 -11 4 -12
3 -18 -1 -14 -4 4 -18 3 -31 -2 -31 -12 -44 11 -43 77 1 77 6 83 104 115 49
15 96 28 105 28 18 0 144 72 176 101 30 28 41 23 14 -6 -33 -35 -17 -43 27
-13 21 14 48 28 60 32 12 4 41 25 65 46 46 43 61 50 51 23 -4 -11 -3 -14 5 -9
14 8 16 74 4 94 -6 9 -18 -2 -39 -35 -17 -27 -44 -60 -60 -74 -33 -31 -89 -68
-82 -54 21 39 40 88 35 92 -3 3 -8 -2 -12 -11 -3 -9 -11 -16 -16 -16 -6 0 -27
-15 -48 -34 -20 -18 -59 -41 -86 -50 -27 -10 -66 -26 -87 -36 -20 -10 -35 -14
-32 -9 4 5 -3 9 -15 9 -12 0 -18 -4 -15 -10 16 -26 -48 -59 -198 -100 l-71
-20 49 50 c48 49 50 50 110 50 35 0 69 6 80 13 16 12 9 15 -56 21 -40 3 -77
12 -81 19 -4 6 -8 7 -8 2 0 -6 -9 -11 -20 -11 -11 0 -20 4 -20 8 0 4 -4 8 -9
8 -14 0 -22 -30 -13 -46 7 -13 10 -13 21 0 8 9 18 16 23 16 10 0 -30 -51 -85
-108 -29 -30 -32 -31 -39 -13 -12 35 -29 35 -57 0 -55 -69 -53 -68 -46 -14 8
62 42 178 67 227 10 21 17 41 16 45 0 5 4 20 10 34 5 14 12 39 15 56 3 16 12
44 22 62 9 18 14 35 11 38 -6 7 28 76 51 102 16 19 45 18 62 -3z m154 -134
c-18 -15 -46 -43 -62 -62 l-29 -35 5 45 c9 71 17 80 71 80 l47 -1 -32 -27z
m67 13 c-7 -8 -16 -15 -21 -15 -5 0 -9 7 -9 15 0 9 9 15 21 15 18 0 19 -2 9
-15z m60 11 c0 -2 -8 -10 -17 -17 -16 -13 -17 -12 -4 4 13 16 21 21 21 13z
m40 1 c0 -2 -12 -14 -27 -28 l-28 -24 24 28 c23 25 31 32 31 24z m10 -20 c0
-2 -10 -12 -22 -23 l-23 -19 19 23 c18 21 26 27 26 19z m1058 -82 c-3 -3 -9 2
-12 12 -6 14 -5 15 5 6 7 -7 10 -15 7 -18z m-17 -12 c13 -16 12 -17 -3 -4 -17
13 -22 21 -14 21 2 0 10 -8 17 -17z m9 -57 l10 -31 -3 32 c-2 18 0 30 5 27 4
-3 8 -33 8 -67 0 -53 -2 -59 -13 -42 -12 16 -14 10 -11 -41 l3 -59 -10 54 c-5
30 -12 57 -16 60 -3 3 -3 -11 1 -32 5 -27 4 -37 -3 -32 -6 3 -11 1 -11 -5 0
-6 -5 -8 -12 -4 -8 5 -9 2 -4 -11 5 -15 4 -16 -9 -5 -18 15 -20 -1 -3 -18 7
-7 9 -12 5 -12 -4 0 -22 16 -40 35 -17 19 -37 35 -42 35 -6 0 -17 17 -24 38
-8 20 -16 43 -19 51 -3 8 15 -1 41 -20 38 -28 46 -40 47 -66 0 -33 20 -48 20
-15 0 9 3 35 7 57 3 22 2 37 -2 33 -10 -9 -35 10 -35 25 0 6 7 2 15 -9 13 -18
14 -18 15 -1 0 10 5 15 10 12 14 -9 12 8 -2 25 -11 12 -10 12 5 1 9 -8 21 -28
26 -45 8 -28 9 -29 10 -6 0 14 -6 39 -14 55 l-15 30 20 -24 c11 -13 20 -31 20
-42 0 -10 4 -20 9 -23 13 -8 -4 61 -21 82 -12 15 -11 16 5 3 9 -7 21 -28 27
-45z m74 -96 c19 -85 21 -168 5 -190 -8 -12 -9 -9 -5 12 8 35 -10 162 -24 166
-5 2 -10 31 -9 65 0 72 9 59 33 -53z m-219 -76 c30 -64 32 -85 5 -56 -17 18
-70 124 -70 140 0 17 44 -39 65 -84z m-505 67 c0 -5 -9 -19 -20 -32 l-21 -24
16 33 c15 31 25 41 25 23z m-430 -35 c0 -2 -7 -7 -16 -10 -8 -3 -12 -2 -9 4 6
10 25 14 25 6z m1090 -88 c0 -41 0 -41 -21 -22 -11 10 -25 28 -31 39 -5 11 2
7 16 -10 l25 -30 1 33 c0 17 2 32 5 32 3 0 5 -19 5 -42z m-50 -32 c0 -12 -5
-7 -19 24 -11 24 -11 24 3 6 9 -11 16 -24 16 -30z m-1370 -61 c0 -8 5 -15 10
-15 6 0 10 -10 10 -23 0 -12 7 -33 16 -45 8 -12 12 -22 7 -23 -89 -7 -108 -21
-53 -38 29 -9 44 -20 51 -39 6 -15 16 -39 24 -54 7 -16 11 -28 9 -28 -11 0
-52 25 -94 59 l-45 35 29 -32 c17 -18 26 -32 21 -32 -4 0 -1 -8 7 -17 34 -40
26 -42 -34 -10 l-63 34 0 55 c0 41 6 62 19 77 11 12 17 24 13 27 -16 16 -34
-19 -52 -100 l-6 -29 -36 39 c-30 33 -34 43 -26 64 5 14 15 24 22 22 7 -1 10
2 6 7 -8 14 114 75 158 80 4 1 7 -6 7 -14z m1550 -17 c0 -23 -3 -29 -9 -19 -8
12 -4 51 5 51 2 0 4 -15 4 -32z m-1790 -20 c-5 -52 -14 -69 -33 -64 -15 4 -17
2 -8 -7 15 -15 14 -40 -1 -31 -8 5 -9 2 -4 -12 5 -10 10 -46 13 -79 l5 -60
-45 50 c-25 27 -48 63 -51 79 -7 36 24 90 68 117 30 19 58 22 56 7z m386 -78
c-26 -5 -54 -11 -62 -14 -8 -3 -14 -1 -14 4 0 11 32 17 85 17 39 1 39 1 -9 -7z
m-31 -30 c-3 -5 -12 -10 -18 -10 -7 0 -6 4 3 10 19 12 23 12 15 0z m1115 -39
c0 -3 -4 -12 -9 -20 -6 -10 -12 -6 -24 17 -15 30 -15 31 9 20 13 -6 24 -14 24
-17z m-290 -7 c0 -8 -5 -12 -10 -9 -6 4 -8 11 -5 16 9 14 15 11 15 -7z m353
-59 c-3 -9 -8 -14 -10 -11 -3 3 -2 9 2 15 9 16 15 13 8 -4z m-41 -17 c-7 -7
-12 -8 -12 -2 0 14 12 26 19 19 2 -3 -1 -11 -7 -17z m248 -10 c0 -5 -4 -8 -10
-8 -5 0 -10 10 -10 23 0 18 2 19 10 7 5 -8 10 -18 10 -22z m-41 -40 c-1 -35 4
-117 11 -183 l13 -121 -32 -109 c-29 -98 -76 -203 -86 -193 -3 2 -5 46 -6 98
-1 72 3 103 16 128 10 19 15 45 12 60 -3 17 1 32 12 42 32 28 45 80 44 169 -2
89 5 171 13 171 3 0 4 -28 3 -62z m-1584 14 c-3 -3 -16 5 -28 17 l-22 23 28
-17 c15 -10 25 -20 22 -23z m190 18 c3 -6 -1 -7 -9 -4 -18 7 -21 14 -7 14 6 0
13 -4 16 -10z m1425 -20 c0 -5 -5 -10 -11 -10 -5 0 -7 5 -4 10 3 6 8 10 11 10
2 0 4 -4 4 -10z m-2186 -52 c11 -41 6 -83 -11 -108 l-17 -24 -7 24 -7 25 -8
-24 c-7 -24 -7 -24 -15 -3 -5 13 -2 39 8 69 22 65 46 82 57 41z m834 -22 c37
-78 35 -106 -2 -36 -37 70 -41 80 -27 80 5 0 18 -20 29 -44z m1251 12 c-5 -18
-18 -41 -29 -52 l-20 -20 0 24 c0 23 37 79 52 80 4 0 2 -14 -3 -32z m-44 3
c-3 -6 -11 -11 -17 -11 -6 0 -6 6 2 15 14 17 26 13 15 -4z m-1301 -7 c11 -29
6 -130 -9 -180 -9 -31 -28 -62 -51 -84 l-36 -35 30 48 c47 74 70 225 40 255
-9 9 -8 12 4 12 9 0 19 -7 22 -16z m-29 -27 c8 -32 -10 -139 -31 -179 -19 -37
-73 -105 -58 -73 11 24 11 181 0 213 -7 19 -5 22 19 22 22 0 26 4 22 20 -4 16
0 20 19 20 16 0 25 -7 29 -23z m113 -114 c-12 -13 -22 -22 -23 -20 -1 1 -5 38
-8 82 l-5 80 29 -60 29 -59 -22 -23z m-234 91 c3 -9 6 -34 5 -57 l-1 -42 -17
50 c-9 28 -16 53 -14 58 7 12 21 8 27 -9z m179 -35 c-8 -29 -13 -23 -13 14 0
22 3 28 9 18 5 -7 6 -22 4 -32z m1165 -36 c1 -55 -20 -139 -43 -168 -14 -18
-14 -17 -1 15 7 19 16 47 20 63 5 23 3 27 -15 27 -15 0 -19 5 -15 15 13 34 -7
12 -24 -27 -10 -24 -36 -68 -57 -98 -44 -62 -77 -129 -69 -137 3 -3 -4 -13
-16 -22 -20 -17 -20 -18 -3 -52 21 -41 18 -39 -30 25 l-37 49 65 59 c77 68
121 134 140 206 11 43 19 56 48 71 19 10 34 19 35 20 0 0 1 -20 2 -46z m179
25 c-3 -8 -6 -5 -6 6 -1 11 2 17 5 13 3 -3 4 -12 1 -19z m-1577 -173 c-12 -36
-25 -67 -30 -70 -8 -5 8 53 29 108 6 16 12 43 13 60 l1 32 4 -33 c3 -18 -5
-62 -17 -97z m-216 83 c-3 -18 -16 -67 -29 -108 -13 -41 -29 -103 -36 -138 -9
-51 -17 -67 -41 -83 -16 -12 -31 -19 -34 -16 -3 3 8 31 24 63 16 33 37 83 46
111 10 29 21 55 26 58 4 3 14 37 21 75 7 39 16 70 20 70 5 0 6 -15 3 -32z
m1651 -19 c-3 -13 -15 -35 -25 -49 -18 -23 -18 -20 2 27 22 54 34 64 23 22z
m-1516 -81 c-17 -33 -132 -168 -142 -168 -5 0 17 28 49 63 32 34 66 77 77 95
21 36 34 44 16 10z m-74 -46 l-28 -27 24 31 c13 17 26 30 28 27 3 -2 -8 -16
-24 -31z m456 21 c13 -16 12 -17 -3 -4 -10 7 -18 15 -18 17 0 8 8 3 21 -13z
m-305 -40 c-8 -15 -15 -25 -16 -21 0 12 23 58 27 54 3 -2 -2 -17 -11 -33z
m211 -15 c-3 -7 -5 -2 -5 12 0 14 2 19 5 13 2 -7 2 -19 0 -25z m-589 -69 c-12
-35 -30 -77 -40 -94 -22 -36 -23 -52 -3 -35 8 7 15 16 15 21 0 13 52 90 57 85
7 -7 -46 -104 -69 -126 -23 -21 -48 -27 -48 -10 0 5 7 7 15 4 8 -4 15 -1 15 6
0 6 -4 8 -10 5 -14 -8 -13 -7 14 63 28 71 68 153 73 149 1 -2 -7 -32 -19 -68z
m202 67 c0 -2 -8 -10 -17 -17 -16 -13 -17 -12 -4 4 13 16 21 21 21 13z m1831
-13 c13 -16 12 -17 -3 -4 -10 7 -18 15 -18 17 0 8 8 3 21 -13z m-1501 -8 c-7
-8 -10 -15 -7 -15 13 0 -53 -163 -79 -198 -39 -51 -234 -248 -234 -236 0 6 16
25 35 44 32 31 49 70 24 54 -8 -4 -7 0 1 15 6 12 15 19 20 16 6 -3 7 0 5 7 -3
8 21 50 52 93 32 44 65 91 74 105 19 30 109 130 116 130 3 0 0 -7 -7 -15z
m1555 -115 c14 -27 22 -50 19 -50 -4 0 1 -9 11 -20 18 -19 17 -20 -3 -20 -12
0 -22 -4 -22 -10 0 -5 13 -10 29 -10 24 0 30 -5 35 -27 14 -74 16 -112 7 -153
-8 -41 -9 -42 -10 -12 -1 39 -21 49 -53 28 l-23 -15 0 124 c0 69 3 125 8 125
4 0 1 10 -7 23 -16 26 -30 67 -22 67 3 0 17 -22 31 -50z m-1491 -35 c-9 -5
-38 -24 -64 -41 l-46 -30 34 67 35 68 29 -27 c26 -24 27 -28 12 -37z m891 35
c9 -17 18 -65 22 -108 5 -67 3 -84 -16 -123 -39 -81 -63 -108 -96 -108 -60 -1
-82 13 -90 59 0 3 -9 19 -18 37 -9 18 -17 38 -17 46 0 8 27 49 60 92 33 43 60
82 60 86 0 9 59 49 72 49 4 0 14 -14 23 -30z m403 -25 c2 -43 1 -45 -40 -65
-23 -11 -51 -20 -62 -20 -18 0 -16 4 12 26 18 15 44 44 58 65 13 22 26 39 28
39 1 0 4 -20 4 -45z m-569 -22 c-12 -21 -32 -53 -46 -72 -20 -26 -28 -30 -35
-20 -7 10 -11 11 -14 3 -8 -19 -42 -4 -71 30 l-26 31 39 3 c40 3 62 10 124 43
49 26 52 24 29 -18z m861 -35 c0 -4 -7 -5 -15 -1 -15 5 -45 53 -45 70 0 9 59
-59 60 -69z m-2276 5 c-14 -32 -30 -62 -36 -68 -7 -7 -9 -7 -5 0 3 6 17 36 30
68 14 31 28 57 31 57 3 0 -6 -26 -20 -57z m466 53 c0 -2 -17 -14 -37 -25 l-38
-21 30 25 c28 23 45 31 45 21z m1690 -143 c0 -61 -14 -62 -23 -2 -4 30 5 59
20 59 2 0 3 -26 3 -57z m-327 29 c-24 -7 -143 -118 -143 -133 0 -9 21 -8 30 2
3 3 22 15 43 28 21 13 44 30 53 38 12 13 20 13 40 4 34 -15 68 2 59 30 -4 11
-2 19 4 19 6 0 11 -5 11 -11 0 -5 4 -8 9 -5 16 10 0 -32 -17 -47 -24 -19 -129
-60 -140 -53 -4 3 -20 -1 -35 -9 -14 -7 -40 -16 -57 -20 l-32 -7 17 29 c27 44
138 143 160 142 18 -1 18 -2 -2 -7z m60 -9 c-7 -2 -19 -2 -25 0 -7 3 -2 5 12
5 14 0 19 -2 13 -5z m73 -198 l-7 -26 -27 19 c-15 10 -35 22 -44 25 -25 9 -22
22 6 35 14 6 33 23 43 39 l18 27 9 -47 c4 -26 5 -58 2 -72z m-1655 86 c-10
-17 -77 -81 -86 -81 -2 0 17 23 43 50 51 55 58 59 43 31z m1321 -3 c-7 -7 -12
-8 -12 -2 0 14 12 26 19 19 2 -3 -1 -11 -7 -17z m213 -18 c-3 -5 -16 -10 -28
-9 -20 1 -20 2 3 9 14 4 26 8 28 9 2 1 0 -3 -3 -9z m-195 -4 c0 -2 -8 -10 -17
-17 -16 -13 -17 -12 -4 4 13 16 21 21 21 13z m646 -36 c-13 -30 -31 -60 -36
-60 -4 0 0 20 8 44 10 27 19 40 24 33 3 -6 6 -14 4 -17z"/>
<path d="M640 2105 c-11 -13 -10 -14 4 -9 9 3 16 10 16 15 0 13 -6 11 -20 -6z"/>
<path d="M605 1947 c-21 -51 -18 -59 6 -14 11 22 18 41 15 44 -3 4 -13 -10
-21 -30z"/>
<path d="M1005 1877 c-12 -9 -14 -16 -7 -21 6 -3 16 3 22 14 13 24 10 25 -15
7z"/>
<path d="M1818 1319 c-21 -11 -38 -22 -38 -24 0 -5 79 32 89 41 12 11 -18 1
-51 -17z"/>
<path d="M1950 932 c0 -10 22 -32 32 -32 5 0 3 9 -4 20 -13 20 -28 27 -28 12z"/>
<path d="M1985 930 c3 -5 8 -10 11 -10 2 0 4 5 4 10 0 6 -5 10 -11 10 -5 0 -7
-4 -4 -10z"/>
<path d="M1905 920 c3 -5 10 -10 16 -10 5 0 9 5 9 10 0 6 -7 10 -16 10 -8 0
-12 -4 -9 -10z"/>
<path d="M1437 639 c7 -7 15 -10 18 -7 3 3 -2 9 -12 12 -14 6 -15 5 -6 -5z"/>
<path d="M2211 1544 c0 -11 3 -14 6 -6 3 7 2 16 -1 19 -3 4 -6 -2 -5 -13z"/>
<path d="M540 1155 c-11 -13 -10 -14 4 -9 9 3 16 10 16 15 0 13 -6 11 -20 -6z"/>
<path d="M550 1080 c0 -5 5 -10 11 -10 5 0 7 5 4 10 -3 6 -8 10 -11 10 -2 0
-4 -4 -4 -10z"/>
<path d="M786 423 c-6 -14 -5 -15 5 -6 7 7 10 15 7 18 -3 3 -9 -2 -12 -12z"/>
<path d="M764 382 c-6 -9 -20 -35 -33 -57 -22 -37 -22 -38 -2 -15 25 29 54 80
49 85 -2 2 -8 -4 -14 -13z"/>
<path d="M2040 160 c-19 -11 -30 -19 -25 -19 6 0 26 8 45 19 19 11 31 19 25
19 -5 0 -26 -8 -45 -19z"/>
<path d="M2250 2499 c-36 -34 -96 -81 -135 -106 -38 -25 -93 -63 -121 -85
l-52 -39 -58 36 c-79 47 -94 45 -21 -3 31 -21 55 -41 52 -44 -7 -6 58 -57 115
-90 46 -27 255 -241 255 -262 0 -6 15 -37 33 -69 19 -32 47 -97 64 -145 24
-71 30 -102 29 -171 0 -47 -3 -98 -6 -115 -4 -19 2 -50 14 -81 22 -54 27 -44
10 18 -8 30 -7 48 5 85 18 52 20 117 5 181 -8 36 -7 51 5 75 67 140 116 250
116 264 -1 17 -44 -70 -96 -190 -16 -38 -31 -68 -34 -68 -3 0 -12 29 -21 65
l-16 64 34 31 c19 16 39 28 43 25 4 -3 16 21 26 52 9 32 28 82 41 112 13 29
23 63 22 75 -1 25 -65 -104 -75 -150 -7 -39 -50 -90 -82 -99 -23 -7 -23 -6 -9
22 8 15 20 47 26 71 7 23 41 110 76 193 36 83 65 160 65 172 -1 20 -126 -263
-166 -374 -21 -57 -34 -63 -34 -16 0 22 -3 28 -9 18 -13 -20 -42 -6 -35 16 5
15 4 16 -5 3 -9 -13 -12 -13 -26 1 -15 15 -14 17 16 23 18 3 37 2 43 -4 5 -5
16 -10 23 -10 8 0 -9 27 -36 60 -62 75 -73 94 -64 116 6 16 5 17 -9 4 -14 -14
-14 -18 3 -51 10 -21 26 -45 35 -54 15 -14 15 -18 3 -26 -17 -11 -29 -11 -29
-1 0 4 -10 18 -21 32 l-20 25 3 -38 4 -38 -28 29 c-26 26 -28 30 -17 61 11 30
8 39 -30 112 -22 43 -41 85 -41 91 0 7 13 -12 29 -42 31 -60 31 -60 79 -39 44
18 41 33 -6 25 -34 -5 -41 -3 -61 24 -20 28 -20 32 -6 46 21 22 19 24 -15 18
-16 -4 -30 -3 -30 2 1 12 47 64 57 64 4 0 46 36 93 80 47 44 78 79 70 79 -8 0
-44 -27 -80 -60z m-70 -396 c0 -8 -9 0 -50 45 l-45 47 48 -45 c26 -24 47 -45
47 -47z m-19 -10 c10 -12 5 -11 -18 6 -18 12 -33 24 -33 27 0 9 37 -15 51 -33z
m193 -199 c5 -14 4 -15 -9 -4 -17 14 -19 20 -6 20 5 0 12 -7 15 -16z"/>
<path d="M2482 2528 c-49 -84 -64 -113 -45 -91 22 27 76 123 69 123 -2 0 -13
-15 -24 -32z"/>
<path d="M2517 2393 c-20 -48 -36 -88 -34 -90 6 -5 79 156 75 166 -1 5 -20
-29 -41 -76z"/>
<path d="M1765 2290 c3 -5 21 -10 38 -9 31 1 31 1 7 9 -36 11 -52 11 -45 0z"/>
<path d="M1735 2270 c3 -5 8 -10 11 -10 2 0 4 5 4 10 0 6 -5 10 -11 10 -5 0
-7 -4 -4 -10z"/>
<path d="M1735 2235 c39 -32 58 -32 22 0 -15 14 -33 25 -40 25 -7 0 2 -11 18
-25z"/>
<path d="M129 1893 c-13 -16 -12 -17 4 -4 9 7 17 15 17 17 0 8 -8 3 -21 -13z"/>
<path d="M84 1858 l-19 -23 23 19 c21 18 27 26 19 26 -2 0 -12 -10 -23 -22z"/>
<path d="M109 1843 c-13 -16 -12 -17 4 -4 16 13 21 21 13 21 -2 0 -10 -8 -17
-17z"/>
<path d="M19 1803 l-24 -28 28 24 c15 14 27 26 27 28 0 8 -8 1 -31 -24z"/>
<path d="M49 1793 l-24 -28 28 24 c15 14 27 26 27 28 0 8 -8 1 -31 -24z"/>
<path d="M2496 1065 c4 -16 6 -40 6 -52 -1 -13 12 -44 28 -70 l30 -47 0 40
c-1 26 -12 58 -36 99 -26 43 -34 52 -28 30z"/>
<path d="M2415 750 c3 -5 11 -10 16 -10 6 0 7 5 4 10 -3 6 -11 10 -16 10 -6 0
-7 -4 -4 -10z"/>
<path d="M1095 187 c11 -7 36 -20 55 -27 19 -8 40 -21 47 -30 11 -13 12 -12
13 6 0 19 10 23 78 34 95 16 80 25 -18 11 -57 -8 -78 -7 -106 5 -20 8 -33 10
-29 5 3 -6 2 -11 -4 -11 -5 0 -13 5 -16 10 -3 6 -14 10 -23 10 -14 0 -13 -2 3
-13z"/>
<path d="M1216 105 c-3 -8 -11 -14 -18 -13 -9 2 -14 -12 -16 -44 -2 -29 1 -48
7 -48 6 0 11 18 11 40 0 29 4 40 15 40 8 0 15 2 15 4 0 2 3 11 6 20 3 9 2 16
-4 16 -5 0 -12 -7 -16 -15z"/>
<path d="M192 84 c-18 -8 -30 -19 -27 -24 3 -6 -5 -15 -19 -21 -49 -23 -40
-39 22 -38 51 1 54 2 29 11 l-29 10 38 39 c41 42 38 46 -14 23z"/>
<path d="M7 43 c-15 -15 -5 -22 23 -16 27 5 30 3 24 -13 -7 -18 -6 -18 12 -1
16 15 17 19 4 27 -17 11 -54 13 -63 3z"/>
<path d="M1897 16 c-4 -10 -1 -13 9 -9 15 6 19 23 5 23 -5 0 -11 -7 -14 -14z"/>
</g>
</svg>
