<svg width="32" height="32" viewBox="0 0 32 32" fill="none" xmlns="http://www.w3.org/2000/svg">
<path d="M16 32C24.8667 32 32 24.8667 32 16C32 7.13328 24.8667 0 16 0C7.13328 0 0 7.13328 0 16C0 24.8667 7.13328 32 16 32Z" fill="black"/>
<path d="M25.9022 20.6149L22.7656 23.7821C22.6974 23.8509 22.6149 23.9057 22.5233 23.9432C22.4316 23.9807 22.3327 24.0001 22.2328 24H7.36413C7.29318 24 7.22378 23.9805 7.16445 23.9439C7.10513 23.9072 7.05846 23.8551 7.03018 23.7938C7.0019 23.7325 6.99324 23.6648 7.00527 23.599C7.01731 23.5332 7.0495 23.4721 7.0979 23.4232L10.2368 20.256C10.3048 20.1874 10.387 20.1326 10.4784 20.0952C10.5698 20.0577 10.6684 20.0383 10.768 20.0381H25.6359C25.7068 20.0381 25.7762 20.0576 25.8356 20.0942C25.8948 20.1309 25.9415 20.183 25.9699 20.2443C25.9981 20.3056 26.0068 20.3733 25.9947 20.4391C25.9827 20.5049 25.9505 20.566 25.9022 20.6149ZM22.7656 14.2369C22.6974 14.1681 22.6149 14.1133 22.5233 14.0758C22.4316 14.0383 22.3327 14.019 22.2328 14.0191H7.36413C7.29318 14.0191 7.22378 14.0386 7.16445 14.0752C7.10513 14.1118 7.05846 14.164 7.03018 14.2252C7.0019 14.2865 6.99324 14.3542 7.00527 14.4201C7.01731 14.4859 7.0495 14.547 7.0979 14.5958L10.2368 17.7631C10.3048 17.8317 10.387 17.8864 10.4784 17.9239C10.5698 17.9614 10.6684 17.9808 10.768 17.9809H25.6359C25.7068 17.9809 25.7762 17.9614 25.8356 17.9248C25.8948 17.8882 25.9415 17.836 25.9699 17.7748C25.9981 17.7135 26.0068 17.6458 25.9947 17.5799C25.9827 17.5141 25.9505 17.453 25.9022 17.4042L22.7656 14.2369ZM7.36413 11.9619H22.2328C22.3327 11.9619 22.4316 11.9426 22.5233 11.9051C22.6149 11.8677 22.6974 11.8128 22.7656 11.744L25.9022 8.57676C25.9505 8.52792 25.9827 8.46683 25.9947 8.401C26.0068 8.33517 25.9981 8.26746 25.9699 8.2062C25.9415 8.14493 25.8948 8.09278 25.8356 8.05615C25.7762 8.01952 25.7068 8 25.6359 8H10.768C10.6684 8.00016 10.5698 8.01958 10.4784 8.05706C10.387 8.09455 10.3048 8.14929 10.2368 8.21791L7.09871 11.3851C7.05036 11.4339 7.01818 11.495 7.00612 11.5607C6.99406 11.6265 7.00265 11.6941 7.03082 11.7554C7.059 11.8166 7.10555 11.8687 7.16476 11.9054C7.22396 11.9421 7.29325 11.9617 7.36413 11.9619Z" fill="url(#paint0_linear_2164_29145)"/>
<defs>
<linearGradient id="paint0_linear_2164_29145" x1="8.60382" y1="24.3813" x2="23.154" y2="6.96107" gradientUnits="userSpaceOnUse">
<stop offset="0.08" stop-color="#9945FF"/>
<stop offset="0.3" stop-color="#8752F3"/>
<stop offset="0.5" stop-color="#5497D5"/>
<stop offset="0.6" stop-color="#43B4CA"/>
<stop offset="0.72" stop-color="#28E0B9"/>
<stop offset="0.97" stop-color="#19FB9B"/>
</linearGradient>
</defs>
</svg>
