<svg width="40" height="100%" viewBox="0 0 113 113" fill="none" xmlns="http://www.w3.org/2000/svg"><circle cx="56.7148" cy="56.8797" r="56" fill="url(#paint0_linear_565_42)"></circle><path fill-rule="evenodd" clip-rule="evenodd" d="M52.6088 15.0331C44.4159 15.916 36.7592 19.0455 30.4458 24.0913C27.5439 26.4105 23.2628 30.9195 23.3803 31.5327C23.4427 31.8581 67.714 32.0346 68.8216 31.7138C69.2771 31.5817 69.9284 31.0149 71.5821 29.3109C75.1012 25.685 75.534 25.6843 78.766 29.3014C81.1297 31.9466 80.6987 31.7941 85.8115 31.7941C90.7697 31.7941 90.6263 31.8725 89.0779 30.0106C80.3651 19.5348 65.9126 13.5992 52.6088 15.0331ZM64.1236 38.3401C63.8632 38.4996 62.9235 39.4555 62.0354 40.4647C60.7487 41.9266 60.236 42.3904 59.5118 42.7473L58.6031 43.1953L37.8717 43.2384C23.0089 43.2691 17.0809 43.3308 16.9301 43.4566C16.2091 44.0573 14.3621 52.9232 14.8381 53.4989C14.9989 53.6932 17.7769 53.7255 34.3361 53.7255C56.925 53.7255 53.9042 54.0891 56.7811 51.0244C60.0054 47.59 60.5682 47.5904 63.642 51.0304C64.9311 52.473 65.722 53.2245 66.1631 53.4256C67.0523 53.831 98.2547 53.895 98.5878 53.4921C99.068 52.9112 97.3536 44.4291 96.5786 43.5516C96.3496 43.2924 95.555 43.274 84.2514 43.2675C69.6431 43.2591 71.3584 43.553 68.7077 40.6048C66.3013 37.9284 65.4682 37.5169 64.1236 38.3401ZM49.2173 60.1297C49.0004 60.2484 48.0561 61.2082 47.119 62.2627C45.8985 63.6357 45.1824 64.3028 44.5951 64.6137L43.7751 65.0476L29.7131 65.0905C17.687 65.127 15.6237 65.1665 15.462 65.3619C14.95 65.9813 18.0271 75.3175 18.8473 75.6334C19.3146 75.8134 38.2674 75.7531 38.7565 75.5701C39.0007 75.4787 40.2298 74.3777 41.4879 73.1234C45.0295 69.5922 45.386 69.5857 48.4451 72.9962C49.7715 74.4749 50.5673 75.2299 51.0145 75.4339C51.8411 75.8106 94.1915 75.9118 94.6977 75.5382C95.6036 74.8697 98.4559 65.9641 97.9575 65.3609C97.7884 65.1565 95.1676 65.1263 77.3159 65.1232C53.2828 65.1191 56.4164 65.4756 53.6968 62.4368C51.383 59.8513 50.5293 59.4116 49.2173 60.1297ZM32.5564 81.2642C32.2859 81.4298 31.3661 82.3615 30.5127 83.3346C28.9221 85.148 28.1888 85.7114 27.0148 86.0221C26.0138 86.287 26.1297 86.5998 27.8036 88.1484C44.4429 103.543 69.4874 103.499 85.7502 88.046C86.545 87.2906 87.07 86.6699 87.0413 86.5196C86.9971 86.2894 84.8647 86.2593 63.4909 86.1873C41.4088 86.1128 39.9585 86.0911 39.4795 85.8283C39.199 85.6745 38.1356 84.6167 37.1163 83.4779C34.7659 80.8517 33.9095 80.4358 32.5564 81.2642Z" fill="white"></path><defs><linearGradient id="paint0_linear_565_42" x1="56.7148" y1="0.8797" x2="22.5817" y2="141.378" gradientUnits="userSpaceOnUse"><stop stop-color="#FFA8D2"></stop><stop offset="0.927083" stop-color="#FF007A"></stop></linearGradient></defs></svg>