<svg id="aptos-icon" xmlns="http://www.w3.org/2000/svg" viewBox="0 0 74.67 74.96" class="w-28">
    <circle cx="37.335" cy="37.48" r="37.335" fill="white"></circle>
    <path d="M57.84,25.08H51.23a2.67,2.67,0,0,1-2-.91l-2.68-3a2.12,2.12,0,0,0-3.15,0l-2.3,2.6a4,4,0,0,1-3,1.34H2a37.24,37.24,0,0,0-2,9.25H34.13a2.21,2.21,0,0,0,1.59-.68l3.18-3.32a2.13,2.13,0,0,1,1.52-.64h.13a2.05,2.05,0,0,1,1.57.71l2.68,3a2.69,2.69,0,0,0,2,.91H74.67a36.79,36.79,0,0,0-2-9.25H57.84Z"></path>
    <path d="M20.65,53.78a2.17,2.17,0,0,0,1.59-.68l3.18-3.31a2.1,2.1,0,0,1,1.52-.65h.13a2.12,2.12,0,0,1,1.58.71l2.68,3a2.7,2.7,0,0,0,2,.9H71.09a37.09,37.09,0,0,0,3.07-9.34H37.92a2.67,2.67,0,0,1-2-.91l-2.68-3a2.1,2.1,0,0,0-3.15,0l-2.3,2.59a4,4,0,0,1-3,1.34H.51a37.5,37.5,0,0,0,3.07,9.34Z"></path>
    <path d="M47.44,15A2.23,2.23,0,0,0,49,14.29L52.21,11a2.09,2.09,0,0,1,1.52-.64h.13a2.09,2.09,0,0,1,1.57.7l2.68,3a2.67,2.67,0,0,0,2,.91H67.3A37.48,37.48,0,0,0,7.37,15Z"></path>
    <path d="M33,63H23.2a2.7,2.7,0,0,1-2-.9l-2.68-3a2.1,2.1,0,0,0-3.15,0l-2.3,2.6a4,4,0,0,1-3,1.33H9.94a37.44,37.44,0,0,0,54.79,0Z"></path>
</svg>
