<svg width="40" height="100%" viewBox="0 0 256 256" fill="#000" xmlns="http://www.w3.org/2000/svg">
  <path d="M192.054 128H64.0545C64.0545 92.8374 92.8341 63.9417 128.113 63.9417C163.391 63.9417 192.17 92.7214 192.17 128H192.054Z" fill="#000"></path>
  <path d="M127.999 0C57.3272 0 0 57.3272 0 128C0 198.672 57.3272 255.999 127.999 255.999C198.673 255.999 256 198.672 256 128C256 57.3272 198.788 0 127.999 0ZM127.999 224.087C75.1984 224.087 31.913 180.917 31.913 128C31.913 75.0824 75.1984 32.0289 127.999 32.0289C180.801 32.0289 224.087 75.1985 224.087 128.115C224.087 181.034 180.917 224.203 127.999 224.203V224.087Z" fill="#000"></path>
</svg>