<svg t="1665597496243" class="icon" viewBox="0 0 1024 1024" version="1.1" xmlns="http://www.w3.org/2000/svg" p-id="25866" width="200" height="200"><path d="M850.816 815.968l-21.472-51.04 30.944-45.92C904.768 652.992 921.6 596 921.6 512c0-225.76-183.808-409.6-409.6-409.6S102.4 286.24 102.4 512 286.24 921.6 512 921.6c76.096 0 124.832-12.032 183.488-45.92l42.4-24.512 45.696 17.6c36.416 14.048 67.84 23.904 93.792 29.728-6.208-27.904-14.272-53.472-26.528-82.56z m94.4-39.712c32.576 77.408 41.344 148.096 45.152 176.448 3.84 28.608-5.664 36.704-14.816 44.576-43.04 20.256-119.328 9.28-228.832-32.928C669.216 1009.12 601.952 1024 512 1024 229.664 1024 0 794.336 0 512S229.696 0 512 0c282.336 0 512 229.664 512 512 0 102.496-21.888 179.808-78.784 264.256zM512 256c28.288 0 51.2 22.912 51.2 51.2V512c0 28.288-22.912 51.2-51.2 51.2s-51.2-22.912-51.2-51.2V307.2c0-28.288 22.912-51.2 51.2-51.2z m0 460.8c-28.288 0-51.2-22.912-51.2-51.2s22.912-51.2 51.2-51.2c28.288 0 51.2 22.912 51.2 51.2s-22.912 51.2-51.2 51.2z" p-id="25867"></path></svg>