<svg width="40" height="40" viewBox="0 0 40 40" fill="none" xmlns="http://www.w3.org/2000/svg">
<path d="M20 2C10.073 2 2 10.0714 2 19.9963C2 27.1298 6.17316 33.3108 12.2076 36.2203V36.2351H12.2372C14.586 37.3649 17.2228 38 20 38C29.927 38 38 29.9286 38 20.0037C38 10.0714 29.927 2 20 2ZM20 3.47692C29.1071 3.47692 36.5228 10.8911 36.5228 19.9963C36.5228 22.6105 35.9097 25.0917 34.824 27.2923C32.4456 26.1403 30.0304 25.2837 27.5929 24.7003V10.9206C27.5929 10.4406 27.2162 10.0566 26.7435 10.0566H23.7152H16.0853H13.057C12.5917 10.0566 12.2076 10.4406 12.2076 10.9206V24.7668C9.84407 25.3502 7.49528 26.192 5.18342 27.2997C4.09027 25.0917 3.47723 22.6178 3.47723 19.9963C3.47723 10.8911 10.8929 3.47692 20 3.47692ZM6.13623 28.9612C8.09356 27.9938 10.1247 27.248 12.215 26.7311V34.5588C9.74066 33.2369 7.65039 31.3022 6.13623 28.9612ZM16.0853 36.0431V17.6037C16.0853 15.4695 17.8359 13.7046 19.9261 13.7046C22.0164 13.7046 23.7152 15.4326 23.7152 17.5594C23.7152 17.5742 23.7078 17.5889 23.7078 17.6037H23.7152V24.0209C21.9352 23.8142 20.1477 23.7477 18.3603 23.8437L16.8904 25.9778C19.1801 25.7858 21.4108 25.8006 23.6118 26.0517C23.634 26.0517 23.6487 26.0517 23.6709 26.0591C23.6857 26.0591 23.7005 26.0591 23.7226 26.0665C24.1067 26.1108 25.5027 26.288 26.7805 26.6055L23.7226 27.6468V36.1022C22.5261 36.3754 21.2852 36.5305 20.0148 36.5305C18.6483 36.5157 17.341 36.3458 16.0853 36.0431ZM27.5856 34.6622V26.768C29.6684 27.2923 31.7292 28.0603 33.7973 29.0646C32.2462 31.4203 30.1042 33.3551 27.5856 34.6622Z" fill="url(#paint0_linear_1755_12472)"/>
<defs>
<linearGradient id="paint0_linear_1755_12472" x1="19.9997" y1="38.7789" x2="19.9997" y2="-3.51978" gradientUnits="userSpaceOnUse">
<stop offset="0.0858" stop-color="#8D29C1"/>
<stop offset="0.2383" stop-color="#942BBB"/>
<stop offset="0.4667" stop-color="#A92FAC"/>
<stop offset="0.7413" stop-color="#CA3793"/>
<stop offset="1" stop-color="#F03F77"/>
</linearGradient>
</defs>
</svg>
